{"title":"The.Call.2013.TS.Real.Line.x264.AAC-OFFLiNE","uid":8401828,"size":1561519457,"categoryP":"video","categoryS":"movies","magnet":"?xt=urn:btih:769c447db94ee70215dd3ea2d0d8f65673dc6084&amp;dn=The.Call.2013.TS.Real.Line.x264.AAC-OFFLiNE&amp;tr=udp%3A%2F%2Ftracker.openbittorrent.com%3A80&amp;tr=udp%3A%2F%2Fopen.demonii.com%3A1337&amp;tr=udp%3A%2F%2Ftracker.coppersurfer.tk%3A6969&amp;tr=udp%3A%2F%2Fexodus.desync.com%3A6969","seeders":1,"leechers":0,"uploader":"Gh0stNet","files":4,"time":1366717745,"description":"The Call 2013 TS Real Line x264 AAC-OFFLiNE\n\niMDB &lt;a href=&quot; http://www.imdb.com/title/tt1911644&quot; rel=&quot;nofollow&quot; target=&quot;_NEW&quot;&gt; http://www.imdb.com/title/tt1911644&lt;/a&gt;\n\nSource  720p UnKnOwN/Tooth Fairy  MANY THANKX\n\nRepack Reason - last release had sync issue and wasn't line..Thanks Tooth Fairy Good To Have You Back\nShout Out To Our Syncer For THis Also so enjoy..W\n\nMedia Info\nThe Call 2013 TS RePACK x264 AAC-OFFLiNE.mp4\nFormat                                   : MPEG-4\nFormat profile                           : Base Media\nCodec ID                                 : isom\nFile size                                : 1.41 GiB\nDuration                                 : 1h 32mn\nOverall bit rate mode                    : Variable\nOverall bit rate                         : 2 171 Kbps\n\nVideo\nID                                       : 1\nFormat                                   : AVC\nFormat/Info                              : Advanced Video Codec\nFormat profile                           : &lt;a class=&quot;__cf_email__&quot; href=&quot;/cdn-cgi/l/email-protection&quot; data-cfemail=&quot;1c54757b745c5028322d&quot;&gt;[email&amp;#160;protected]&lt;/a&gt;&lt;script cf-hash='f9e31' type=&quot;text/javascript&quot;&gt;\n/* &lt;![CDATA[ */!function(){try{var t=&quot;currentScript&quot;in document?document.currentScript:function(){for(var t=document.getElementsByTagName(&quot;script&quot;),e=t.length;e--;)if(t[e].getAttribute(&quot;cf-hash&quot;))return t[e]}();if(t&amp;&amp;t.previousSibling){var e,r,n,i,c=t.previousSibling,a=c.getAttribute(&quot;data-cfemail&quot;);if(a){for(e=&quot;&quot;,r=parseInt(a.substr(0,2),16),n=2;a.length-n;n+=2)i=parseInt(a.substr(n,2),16)^r,e+=String.fromCharCode(i);e=document.createTextNode(e),c.parentNode.replaceChild(e,c)}}}catch(u){}}();/* ]]&gt; */&lt;/script&gt;\nFormat settings, CABAC                   : Yes\nFormat settings, ReFrames                : 3 frames\nFormat settings, GOP                     : M=4, N=29\nCodec ID                                 : avc1\nCodec ID/Info                            : Advanced Video Coding\nDuration                                 : 1h 27mn\nBit rate mode                            : Variable\nBit rate                                 : 2 174 Kbps\nMaximum bit rate                         : 40.0 Mbps\nWidth                                    : 720 pixels\nHeight                                   : 388 pixels\nDisplay aspect ratio                     : 1.85:1\nFrame rate mode                          : Constant\nFrame rate                               : 29.970 fps\nColor space                              : YUV\nChroma subsampling                       : 4:2:0\nBit depth                                : 8 bits\nScan type                                : Progressive\nBits/(Pixel*Frame)                       : 0.260\nStream size                              : 1.33 GiB (95%)\nTitle                                    : The Call 2013 TS RePACK x264 AAC-OFFLiNE\nWriting library                          : x264 core 130 r2273 b3065e6\n\nAudio\nID                                       : 2\nFormat                                   : AAC\nFormat/Info                              : Advanced Audio Codec\nFormat profile                           : LC\nCodec ID                                 : 40\nDuration                                 : 1h 32mn\nBit rate mode                            : Variable\nBit rate                                 : 111 Kbps\nMaximum bit rate                         : 142 Kbps\nChannel(s)                               : 2 channels\nChannel positions                        : Front: L R\nSampling rate                            : 44.1 KHz\nCompression mode                         : Lossy\nDelay relative to video                  : 18s 300ms\nStream size                              : 73.6 MiB (5%)\nTitle                                    : synced\nLanguage                                 : English\n\nScreens &lt;a href=&quot;\nhttp://i.imgur.com/i69iK98.png&quot; rel=&quot;nofollow&quot; target=&quot;_NEW&quot;&gt;\nhttp://i.imgur.com/i69iK98.png&lt;/a&gt; &lt;a href=&quot;\nhttp://i.imgur.com/1OgNJoB.png&quot; rel=&quot;nofollow&quot; target=&quot;_NEW&quot;&gt;\nhttp://i.imgur.com/1OgNJoB.png&lt;/a&gt; &lt;a href=&quot;\nhttp://i.imgur.com/YgEAHUI.png&quot; rel=&quot;nofollow&quot; target=&quot;_NEW&quot;&gt;\nhttp://i.imgur.com/YgEAHUI.png&lt;/a&gt; &lt;a href=&quot;\nhttp://i.imgur.com/3MJtLN6.png&quot; rel=&quot;nofollow&quot; target=&quot;_NEW&quot;&gt;\nhttp://i.imgur.com/3MJtLN6.png&lt;/a&gt; &lt;a href=&quot;\nhttp://i.imgur.com/kC6BNGO.png&quot; rel=&quot;nofollow&quot; target=&quot;_NEW&quot;&gt;\nhttp://i.imgur.com/kC6BNGO.png&lt;/a&gt;","torrent":{"xt":"urn:btih:769c447db94ee70215dd3ea2d0d8f65673dc6084","amp;dn":"The.Call.2013.TS.Real.Line.x264.AAC-OFFLiNE","amp;tr":["udp%3A%2F%2Ftracker.openbittorrent.com%3A80","udp%3A%2F%2Fopen.demonii.com%3A1337","udp%3A%2F%2Ftracker.coppersurfer.tk%3A6969","udp%3A%2F%2Fexodus.desync.com%3A6969"],"infoHash":"769c447db94ee70215dd3ea2d0d8f65673dc6084","infoHashBuffer":{"type":"Buffer","data":[118,156,68,125,185,78,231,2,21,221,62,162,208,216,246,86,115,220,96,132]},"announce":[],"urlList":[]}}